<mxfile host="app.diagrams.net" agent="Mozilla/5.0 (Windows NT 10.0; Win64; x64) AppleWebKit/537.36 (KHTML, like Gecko) Chrome/139.0.0.0 Safari/537.36" version="28.1.1">
  <diagram name="Page-1" id="a4zsewuxJXUYAp-Rzpwg">
    <mxGraphModel dx="2239" dy="765" grid="1" gridSize="10" guides="1" tooltips="1" connect="1" arrows="1" fold="1" page="1" pageScale="1" pageWidth="850" pageHeight="1100" math="0" shadow="0">
      <root>
        <mxCell id="0" />
        <mxCell id="1" parent="0" />
        <mxCell id="OyhzpOoLNx4OBJZAxpWR-2" value="&lt;b&gt;ADMIN&lt;/b&gt;" style="shape=umlActor;verticalLabelPosition=bottom;verticalAlign=top;html=1;outlineConnect=0;" vertex="1" parent="1">
          <mxGeometry x="-270" y="220" width="30" height="60" as="geometry" />
        </mxCell>
        <mxCell id="OyhzpOoLNx4OBJZAxpWR-5" value="Manage&amp;nbsp;&lt;br&gt;student" style="ellipse;whiteSpace=wrap;html=1;" vertex="1" parent="1">
          <mxGeometry x="-150" y="350" width="120" height="80" as="geometry" />
        </mxCell>
        <mxCell id="OyhzpOoLNx4OBJZAxpWR-6" value="Manage &lt;br&gt;lecturer" style="ellipse;whiteSpace=wrap;html=1;" vertex="1" parent="1">
          <mxGeometry x="-150" y="470" width="120" height="80" as="geometry" />
        </mxCell>
        <mxCell id="OyhzpOoLNx4OBJZAxpWR-7" value="Manage&lt;br&gt;Section" style="ellipse;whiteSpace=wrap;html=1;" vertex="1" parent="1">
          <mxGeometry x="-180" y="565" width="120" height="80" as="geometry" />
        </mxCell>
        <mxCell id="OyhzpOoLNx4OBJZAxpWR-8" value="Manage&lt;br&gt;Course" style="ellipse;whiteSpace=wrap;html=1;" vertex="1" parent="1">
          <mxGeometry x="-180" y="660" width="120" height="80" as="geometry" />
        </mxCell>
        <mxCell id="OyhzpOoLNx4OBJZAxpWR-11" value="" style="endArrow=none;html=1;rounded=0;entryX=-0.003;entryY=0.633;entryDx=0;entryDy=0;entryPerimeter=0;" edge="1" parent="1" source="OyhzpOoLNx4OBJZAxpWR-2" target="OyhzpOoLNx4OBJZAxpWR-5">
          <mxGeometry width="50" height="50" relative="1" as="geometry">
            <mxPoint x="400" y="540" as="sourcePoint" />
            <mxPoint x="450" y="490" as="targetPoint" />
            <Array as="points">
              <mxPoint x="-260" y="390" />
            </Array>
          </mxGeometry>
        </mxCell>
        <mxCell id="OyhzpOoLNx4OBJZAxpWR-12" value="" style="endArrow=none;html=1;rounded=0;entryX=0;entryY=0.5;entryDx=0;entryDy=0;" edge="1" parent="1" target="OyhzpOoLNx4OBJZAxpWR-6">
          <mxGeometry width="50" height="50" relative="1" as="geometry">
            <mxPoint x="-250" y="390" as="sourcePoint" />
            <mxPoint x="160" y="481" as="targetPoint" />
            <Array as="points">
              <mxPoint x="-190" y="530" />
            </Array>
          </mxGeometry>
        </mxCell>
        <mxCell id="OyhzpOoLNx4OBJZAxpWR-13" value="" style="endArrow=none;html=1;rounded=0;entryX=0.03;entryY=0.593;entryDx=0;entryDy=0;entryPerimeter=0;" edge="1" parent="1" target="OyhzpOoLNx4OBJZAxpWR-7">
          <mxGeometry width="50" height="50" relative="1" as="geometry">
            <mxPoint x="-250" y="390" as="sourcePoint" />
            <mxPoint x="240" y="750" as="targetPoint" />
            <Array as="points">
              <mxPoint x="-220" y="610" />
            </Array>
          </mxGeometry>
        </mxCell>
        <mxCell id="OyhzpOoLNx4OBJZAxpWR-14" value="" style="endArrow=none;html=1;rounded=0;entryX=0;entryY=0.5;entryDx=0;entryDy=0;" edge="1" parent="1" target="OyhzpOoLNx4OBJZAxpWR-8">
          <mxGeometry width="50" height="50" relative="1" as="geometry">
            <mxPoint x="-260" y="390" as="sourcePoint" />
            <mxPoint x="-120" y="520" as="targetPoint" />
            <Array as="points">
              <mxPoint x="-240" y="720" />
            </Array>
          </mxGeometry>
        </mxCell>
        <mxCell id="OyhzpOoLNx4OBJZAxpWR-15" value="&lt;b&gt;Lecturer&lt;/b&gt;" style="shape=umlActor;verticalLabelPosition=bottom;verticalAlign=top;html=1;outlineConnect=0;" vertex="1" parent="1">
          <mxGeometry x="740" y="300" width="30" height="60" as="geometry" />
        </mxCell>
        <mxCell id="OyhzpOoLNx4OBJZAxpWR-17" value="view/update&lt;br&gt;assigned Section" style="ellipse;whiteSpace=wrap;html=1;" vertex="1" parent="1">
          <mxGeometry x="555" y="520" width="120" height="80" as="geometry" />
        </mxCell>
        <mxCell id="OyhzpOoLNx4OBJZAxpWR-18" value="view/update&lt;br&gt;own lecturer data" style="ellipse;whiteSpace=wrap;html=1;" vertex="1" parent="1">
          <mxGeometry x="560" y="420" width="120" height="80" as="geometry" />
        </mxCell>
        <mxCell id="OyhzpOoLNx4OBJZAxpWR-19" value="view/update&lt;br&gt;Stduent" style="ellipse;whiteSpace=wrap;html=1;" vertex="1" parent="1">
          <mxGeometry x="550" y="320" width="120" height="80" as="geometry" />
        </mxCell>
        <mxCell id="OyhzpOoLNx4OBJZAxpWR-22" value="" style="endArrow=none;html=1;rounded=0;" edge="1" parent="1" source="OyhzpOoLNx4OBJZAxpWR-19" target="OyhzpOoLNx4OBJZAxpWR-15">
          <mxGeometry width="50" height="50" relative="1" as="geometry">
            <mxPoint x="780" y="600" as="sourcePoint" />
            <mxPoint x="910" y="727" as="targetPoint" />
            <Array as="points">
              <mxPoint x="740" y="420" />
            </Array>
          </mxGeometry>
        </mxCell>
        <mxCell id="OyhzpOoLNx4OBJZAxpWR-23" value="" style="endArrow=none;html=1;rounded=0;entryX=1.003;entryY=0.678;entryDx=0;entryDy=0;entryPerimeter=0;" edge="1" parent="1" target="OyhzpOoLNx4OBJZAxpWR-18">
          <mxGeometry width="50" height="50" relative="1" as="geometry">
            <mxPoint x="740" y="420" as="sourcePoint" />
            <mxPoint x="840" y="527" as="targetPoint" />
            <Array as="points">
              <mxPoint x="730" y="527" />
            </Array>
          </mxGeometry>
        </mxCell>
        <mxCell id="OyhzpOoLNx4OBJZAxpWR-24" value="" style="endArrow=none;html=1;rounded=0;" edge="1" parent="1" target="OyhzpOoLNx4OBJZAxpWR-26">
          <mxGeometry width="50" height="50" relative="1" as="geometry">
            <mxPoint x="650" y="780" as="sourcePoint" />
            <mxPoint x="780" y="907" as="targetPoint" />
            <Array as="points">
              <mxPoint x="760" y="770" />
            </Array>
          </mxGeometry>
        </mxCell>
        <mxCell id="OyhzpOoLNx4OBJZAxpWR-25" value="" style="endArrow=none;html=1;rounded=0;exitX=0.925;exitY=0.788;exitDx=0;exitDy=0;exitPerimeter=0;" edge="1" parent="1" source="OyhzpOoLNx4OBJZAxpWR-17">
          <mxGeometry width="50" height="50" relative="1" as="geometry">
            <mxPoint x="710" y="600" as="sourcePoint" />
            <mxPoint x="730" y="530" as="targetPoint" />
            <Array as="points">
              <mxPoint x="730" y="590" />
            </Array>
          </mxGeometry>
        </mxCell>
        <mxCell id="OyhzpOoLNx4OBJZAxpWR-26" value="&lt;b&gt;Student&lt;/b&gt;" style="shape=umlActor;verticalLabelPosition=bottom;verticalAlign=top;html=1;outlineConnect=0;" vertex="1" parent="1">
          <mxGeometry x="750" y="640" width="30" height="60" as="geometry" />
        </mxCell>
        <mxCell id="OyhzpOoLNx4OBJZAxpWR-28" value="View/Update own&amp;nbsp;&lt;br&gt;Student deatils" style="ellipse;whiteSpace=wrap;html=1;" vertex="1" parent="1">
          <mxGeometry x="580" y="621" width="120" height="80" as="geometry" />
        </mxCell>
        <mxCell id="OyhzpOoLNx4OBJZAxpWR-29" value="View &lt;br&gt;assigned Course" style="ellipse;whiteSpace=wrap;html=1;" vertex="1" parent="1">
          <mxGeometry x="590" y="720" width="120" height="60" as="geometry" />
        </mxCell>
        <mxCell id="OyhzpOoLNx4OBJZAxpWR-33" value="" style="endArrow=none;html=1;rounded=0;entryX=0.25;entryY=0.1;entryDx=0;entryDy=0;entryPerimeter=0;" edge="1" parent="1" source="OyhzpOoLNx4OBJZAxpWR-28" target="OyhzpOoLNx4OBJZAxpWR-26">
          <mxGeometry width="50" height="50" relative="1" as="geometry">
            <mxPoint x="740" y="870" as="sourcePoint" />
            <mxPoint x="870" y="997" as="targetPoint" />
            <Array as="points">
              <mxPoint x="720" y="700" />
            </Array>
          </mxGeometry>
        </mxCell>
        <mxCell id="OyhzpOoLNx4OBJZAxpWR-35" value="&amp;lt;&amp;lt;include&amp;gt;&amp;gt;" style="endArrow=open;startArrow=none;endFill=0;startFill=0;endSize=8;html=1;verticalAlign=bottom;dashed=1;labelBackgroundColor=none;rounded=0;exitX=0.082;exitY=0.346;exitDx=0;exitDy=0;exitPerimeter=0;" edge="1" parent="1" source="OyhzpOoLNx4OBJZAxpWR-28" target="OyhzpOoLNx4OBJZAxpWR-36">
          <mxGeometry x="0.2637" y="29" width="160" relative="1" as="geometry">
            <mxPoint x="530" y="580" as="sourcePoint" />
            <mxPoint x="690" y="580" as="targetPoint" />
            <mxPoint as="offset" />
          </mxGeometry>
        </mxCell>
        <mxCell id="OyhzpOoLNx4OBJZAxpWR-36" value="assignment" style="ellipse;whiteSpace=wrap;html=1;" vertex="1" parent="1">
          <mxGeometry x="410" y="440" width="120" height="80" as="geometry" />
        </mxCell>
        <mxCell id="OyhzpOoLNx4OBJZAxpWR-50" value="&amp;lt;&amp;lt;extend&amp;gt;&amp;gt;" style="endArrow=open;startArrow=none;endFill=0;startFill=0;endSize=8;html=1;verticalAlign=bottom;dashed=1;labelBackgroundColor=none;rounded=0;exitX=0;exitY=1;exitDx=0;exitDy=0;entryX=1.004;entryY=0.38;entryDx=0;entryDy=0;entryPerimeter=0;" edge="1" parent="1" source="OyhzpOoLNx4OBJZAxpWR-36" target="OyhzpOoLNx4OBJZAxpWR-53">
          <mxGeometry x="-0.3669" y="12" width="160" relative="1" as="geometry">
            <mxPoint x="504" y="757" as="sourcePoint" />
            <mxPoint x="240" y="590" as="targetPoint" />
            <mxPoint x="-1" as="offset" />
          </mxGeometry>
        </mxCell>
        <mxCell id="OyhzpOoLNx4OBJZAxpWR-51" value="Marked more than 50" style="html=1;align=center;verticalAlign=middle;rounded=1;absoluteArcSize=1;arcSize=10;dashed=1;whiteSpace=wrap;" vertex="1" parent="1">
          <mxGeometry x="355" y="605" width="140" height="40" as="geometry" />
        </mxCell>
        <mxCell id="OyhzpOoLNx4OBJZAxpWR-52" value="" style="endArrow=block;startArrow=none;endFill=0;startFill=0;endSize=8;html=1;verticalAlign=bottom;dashed=1;labelBackgroundColor=none;rounded=0;exitX=0.358;exitY=-0.003;exitDx=0;exitDy=0;exitPerimeter=0;" edge="1" parent="1" source="OyhzpOoLNx4OBJZAxpWR-51">
          <mxGeometry width="160" relative="1" as="geometry">
            <mxPoint x="300" y="550" as="sourcePoint" />
            <mxPoint x="340" y="560" as="targetPoint" />
          </mxGeometry>
        </mxCell>
        <mxCell id="OyhzpOoLNx4OBJZAxpWR-53" value="Pass" style="ellipse;whiteSpace=wrap;html=1;" vertex="1" parent="1">
          <mxGeometry x="200" y="551" width="120" height="70" as="geometry" />
        </mxCell>
        <mxCell id="OyhzpOoLNx4OBJZAxpWR-55" value="Enroll" style="ellipse;whiteSpace=wrap;html=1;" vertex="1" parent="1">
          <mxGeometry y="340" width="120" height="80" as="geometry" />
        </mxCell>
        <mxCell id="OyhzpOoLNx4OBJZAxpWR-56" value="&amp;lt;&amp;lt;include&amp;gt;&amp;gt;" style="endArrow=open;startArrow=none;endFill=0;startFill=0;endSize=8;html=1;verticalAlign=bottom;dashed=1;labelBackgroundColor=none;rounded=0;exitX=1.012;exitY=0.613;exitDx=0;exitDy=0;exitPerimeter=0;entryX=0;entryY=0.625;entryDx=0;entryDy=0;entryPerimeter=0;" edge="1" parent="1" source="OyhzpOoLNx4OBJZAxpWR-5" target="OyhzpOoLNx4OBJZAxpWR-55">
          <mxGeometry x="0.1169" y="20" width="160" relative="1" as="geometry">
            <mxPoint x="344" y="847" as="sourcePoint" />
            <mxPoint x="200" y="720" as="targetPoint" />
            <mxPoint as="offset" />
          </mxGeometry>
        </mxCell>
        <mxCell id="OyhzpOoLNx4OBJZAxpWR-59" value="Marked less than 50" style="html=1;align=center;verticalAlign=middle;rounded=1;absoluteArcSize=1;arcSize=10;dashed=1;whiteSpace=wrap;" vertex="1" parent="1">
          <mxGeometry x="310" y="410" width="140" height="40" as="geometry" />
        </mxCell>
        <mxCell id="OyhzpOoLNx4OBJZAxpWR-60" value="" style="endArrow=block;startArrow=none;endFill=0;startFill=0;endSize=8;html=1;verticalAlign=bottom;dashed=1;labelBackgroundColor=none;rounded=0;exitX=0.5;exitY=1;exitDx=0;exitDy=0;" edge="1" parent="1" source="OyhzpOoLNx4OBJZAxpWR-59">
          <mxGeometry width="160" relative="1" as="geometry">
            <mxPoint x="280" y="420" as="sourcePoint" />
            <mxPoint x="380" y="490" as="targetPoint" />
          </mxGeometry>
        </mxCell>
        <mxCell id="OyhzpOoLNx4OBJZAxpWR-61" value="&amp;lt;&amp;lt;extend&amp;gt;&amp;gt;" style="endArrow=open;startArrow=none;endFill=0;startFill=0;endSize=8;html=1;verticalAlign=bottom;dashed=1;labelBackgroundColor=none;rounded=0;exitX=0;exitY=0.5;exitDx=0;exitDy=0;entryX=0.978;entryY=0.616;entryDx=0;entryDy=0;entryPerimeter=0;" edge="1" parent="1" source="OyhzpOoLNx4OBJZAxpWR-36" target="OyhzpOoLNx4OBJZAxpWR-62">
          <mxGeometry x="0.2637" y="29" width="160" relative="1" as="geometry">
            <mxPoint x="278" y="480" as="sourcePoint" />
            <mxPoint x="300" y="430" as="targetPoint" />
            <mxPoint as="offset" />
          </mxGeometry>
        </mxCell>
        <mxCell id="OyhzpOoLNx4OBJZAxpWR-62" value="Fail" style="ellipse;whiteSpace=wrap;html=1;" vertex="1" parent="1">
          <mxGeometry x="210" y="450" width="120" height="80" as="geometry" />
        </mxCell>
        <mxCell id="OyhzpOoLNx4OBJZAxpWR-63" value="&amp;lt;&amp;lt;extend&amp;gt;&amp;gt;" style="endArrow=open;startArrow=none;endFill=0;startFill=0;endSize=8;html=1;verticalAlign=bottom;dashed=1;labelBackgroundColor=none;rounded=0;entryX=0;entryY=0.5;entryDx=0;entryDy=0;exitX=0.5;exitY=0;exitDx=0;exitDy=0;" edge="1" parent="1" source="OyhzpOoLNx4OBJZAxpWR-55" target="OyhzpOoLNx4OBJZAxpWR-64">
          <mxGeometry x="-0.0826" y="14" width="160" relative="1" as="geometry">
            <mxPoint x="160" y="320" as="sourcePoint" />
            <mxPoint x="129" y="321" as="targetPoint" />
            <mxPoint as="offset" />
          </mxGeometry>
        </mxCell>
        <mxCell id="OyhzpOoLNx4OBJZAxpWR-64" value="Sucessfull" style="ellipse;whiteSpace=wrap;html=1;" vertex="1" parent="1">
          <mxGeometry x="230" y="200" width="120" height="80" as="geometry" />
        </mxCell>
        <mxCell id="OyhzpOoLNx4OBJZAxpWR-65" value="&amp;lt;&amp;lt;extend&amp;gt;&amp;gt;" style="endArrow=open;startArrow=none;endFill=0;startFill=0;endSize=8;html=1;verticalAlign=bottom;dashed=1;labelBackgroundColor=none;rounded=0;exitX=0.979;exitY=0.241;exitDx=0;exitDy=0;exitPerimeter=0;entryX=0;entryY=0.5;entryDx=0;entryDy=0;" edge="1" parent="1" source="OyhzpOoLNx4OBJZAxpWR-55" target="OyhzpOoLNx4OBJZAxpWR-66">
          <mxGeometry x="-0.2403" y="12" width="160" relative="1" as="geometry">
            <mxPoint x="200" y="380" as="sourcePoint" />
            <mxPoint x="240" y="370" as="targetPoint" />
            <mxPoint as="offset" />
          </mxGeometry>
        </mxCell>
        <mxCell id="OyhzpOoLNx4OBJZAxpWR-66" value="Unsucessfull" style="ellipse;whiteSpace=wrap;html=1;" vertex="1" parent="1">
          <mxGeometry x="260" y="300" width="120" height="80" as="geometry" />
        </mxCell>
        <mxCell id="OyhzpOoLNx4OBJZAxpWR-67" value="pays fee" style="html=1;align=center;verticalAlign=middle;rounded=1;absoluteArcSize=1;arcSize=10;dashed=1;whiteSpace=wrap;" vertex="1" parent="1">
          <mxGeometry x="40" y="210" width="140" height="40" as="geometry" />
        </mxCell>
        <mxCell id="OyhzpOoLNx4OBJZAxpWR-68" value="Doesnot pay fee" style="html=1;align=center;verticalAlign=middle;rounded=1;absoluteArcSize=1;arcSize=10;dashed=1;whiteSpace=wrap;" vertex="1" parent="1">
          <mxGeometry x="130" y="390" width="140" height="40" as="geometry" />
        </mxCell>
        <mxCell id="OyhzpOoLNx4OBJZAxpWR-69" value="" style="endArrow=block;startArrow=none;endFill=0;startFill=0;endSize=8;html=1;verticalAlign=bottom;dashed=1;labelBackgroundColor=none;rounded=0;exitX=0.25;exitY=1;exitDx=0;exitDy=0;" edge="1" parent="1" source="OyhzpOoLNx4OBJZAxpWR-67">
          <mxGeometry width="160" relative="1" as="geometry">
            <mxPoint x="85" y="725" as="sourcePoint" />
            <mxPoint x="130" y="300" as="targetPoint" />
          </mxGeometry>
        </mxCell>
        <mxCell id="OyhzpOoLNx4OBJZAxpWR-70" value="" style="endArrow=block;startArrow=none;endFill=0;startFill=0;endSize=8;html=1;verticalAlign=bottom;dashed=1;labelBackgroundColor=none;rounded=0;entryX=0.5;entryY=0;entryDx=0;entryDy=0;" edge="1" parent="1" target="OyhzpOoLNx4OBJZAxpWR-68">
          <mxGeometry width="160" relative="1" as="geometry">
            <mxPoint x="170" y="350" as="sourcePoint" />
            <mxPoint x="80" y="700" as="targetPoint" />
          </mxGeometry>
        </mxCell>
        <mxCell id="OyhzpOoLNx4OBJZAxpWR-71" value="" style="endArrow=none;html=1;rounded=0;entryX=0.778;entryY=0.047;entryDx=0;entryDy=0;entryPerimeter=0;" edge="1" parent="1" target="OyhzpOoLNx4OBJZAxpWR-36">
          <mxGeometry width="50" height="50" relative="1" as="geometry">
            <mxPoint x="740" y="430" as="sourcePoint" />
            <mxPoint x="210" y="1100" as="targetPoint" />
            <Array as="points">
              <mxPoint x="540" y="400" />
            </Array>
          </mxGeometry>
        </mxCell>
      </root>
    </mxGraphModel>
  </diagram>
</mxfile>
